<svg xmlns="http://www.w3.org/2000/svg" fill="none" viewBox="1.43 7.87 32.93 20.18">
<path d="M9.22609 28.052C8.59475 28.052 7.13784 27.0564 4.85533 25.0653C2.57283 23.0742 1.43158 21.7144 1.43158 20.9859C1.43158 20.2089 3.54411 17.8293 7.76917 13.847C11.9942 9.86478 14.3496 7.87366 14.8352 7.87366C14.9809 7.87366 15.2966 8.11648 15.7822 8.60211C16.3164 9.08775 16.5835 9.47626 16.5835 9.76765C16.5835 10.0105 15.4423 12.293 13.1598 16.6152C15.8308 18.7034 17.1663 20.136 17.1663 20.9131C17.1663 21.6901 16.0007 23.0742 13.6697 25.0653C11.3386 27.0564 9.85742 28.052 9.22609 28.052ZM26.4177 28.052C25.7864 28.052 24.3295 27.0564 22.0469 25.0653C19.7644 23.0742 18.6232 21.7144 18.6232 20.9859C18.6232 20.2089 20.7357 17.8293 24.9608 13.847C29.1858 9.86478 31.5412 7.87366 32.0268 7.87366C32.1725 7.87366 32.4882 8.11648 32.9738 8.60211C33.508 9.08775 33.7751 9.47626 33.7751 9.76765C33.7751 10.0105 32.6339 12.293 30.3514 16.6152C33.0224 18.7034 34.3579 20.136 34.3579 20.9131C34.3579 21.6901 33.1924 23.0742 30.8613 25.0653C28.5302 27.0564 27.049 28.052 26.4177 28.052Z" fill="#C4FF96"/>
</svg>