<svg width="13" height="13" viewBox="0 0 13 13" fill="none" xmlns="http://www.w3.org/2000/svg">
<path d="M6.50016 2.16665C5.01136 2.16665 3.69708 2.91754 2.91673 4.06248H4.3335V5.14581H1.0835V1.89581H2.16683V3.24963C3.15473 1.93463 4.72763 1.08331 6.50016 1.08331C9.49168 1.08331 11.9168 3.50844 11.9168 6.49998H10.8335C10.8335 4.10674 8.89341 2.16665 6.50016 2.16665ZM2.16683 6.49998C2.16683 8.89322 4.10693 10.8333 6.50016 10.8333C7.98899 10.8333 9.30323 10.0824 10.0836 8.93748H8.66683V7.85415H11.9168V11.1041H10.8335V9.7503C9.8456 11.0653 8.27271 11.9166 6.50016 11.9166C3.50862 11.9166 1.0835 9.4915 1.0835 6.49998H2.16683Z" fill="currentColor"/>
</svg>
