<svg xmlns="http://www.w3.org/2000/svg" fill="currentColor" viewBox="0.26 0.07 13.05 12.54">
<path d="M6.17741 1.13388C6.39982 0.591611 7.16778 0.591612 7.39019 1.13388L8.52018 3.88902C8.61432 4.11857 8.83001 4.27527 9.07742 4.29388L12.0469 4.51718C12.6314 4.56113 12.8687 5.2915 12.4217 5.67059L10.1506 7.59666C9.96134 7.75714 9.87895 8.01069 9.93771 8.25174L10.643 11.1449C10.7818 11.7143 10.1605 12.1657 9.66181 11.8577L7.12819 10.293C6.9171 10.1626 6.6505 10.1626 6.43941 10.293L3.90579 11.8577C3.40713 12.1657 2.78583 11.7143 2.92464 11.1449L3.62989 8.25174C3.68865 8.01069 3.60626 7.75714 3.41704 7.59666L1.14594 5.67059C0.698935 5.2915 0.936247 4.56113 1.5207 4.51718L4.49018 4.29388C4.73759 4.27527 4.95328 4.11857 5.04742 3.88902L6.17741 1.13388Z" stroke="currentColor" stroke-width="1.31081"/>
</svg>