<svg xmlns="http://www.w3.org/2000/svg" version="1.0" preserveAspectRatio="xMidYMid meet" viewBox="27 0.26 458 511.08">

<g transform="translate(0.000000,512.000000) scale(0.100000,-0.100000)" fill="#000000" stroke="none">
<path d="M2430 5114 c-318 -41 -573 -161 -793 -373 -487 -469 -539 -1230 -121 -1767 401 -516 1135 -662 1699 -337 498 287 755 845 649 1406 -99 519 -517 941 -1037 1048 -99 20 -318 33 -397 23z"/>
<path d="M1490 2350 c-443 -78 -849 -353 -1102 -746 -53 -83 -118 -224 -118 -257 0 -66 190 -334 370 -521 439 -457 981 -729 1605 -807 130 -17 492 -16 620 0 506 65 956 254 1345 565 121 96 358 341 452 466 105 141 188 275 188 306 0 30 -56 153 -105 229 -171 267 -409 485 -676 618 -195 97 -438 164 -561 155 -42 -3 -70 -13 -110 -38 -144 -91 -190 -116 -270 -151 -199 -87 -402 -125 -618 -116 -276 11 -508 85 -739 237 -50 33 -103 62 -118 66 -16 3 -35 7 -43 9 -8 2 -62 -5 -120 -15z"/>
</g>
</svg>