<svg xmlns="http://www.w3.org/2000/svg" version="1.0" preserveAspectRatio="xMidYMid meet" viewBox="27 48.3 458 415.21">
<g transform="translate(0.000000,512.000000) scale(0.100000,-0.100000)" fill="#000000" stroke="none">
<path d="M735 4628 c-27 -5 -87 -27 -133 -48 -108 -51 -222 -161 -270 -260 -66 -136 -62 -25 -62 -1760 0 -1735 -4 -1624 62 -1760 41 -85 160 -206 243 -247 146 -73 62 -68 1130 -68 l960 0 74 24 c145 48 274 158 341 291 61 121 65 149 65 455 0 264 -1 282 -21 315 -45 77 -136 102 -214 59 -72 -41 -74 -51 -80 -354 -5 -248 -7 -274 -26 -315 -26 -54 -74 -104 -128 -133 l-41 -22 -909 -3 c-1013 -3 -963 -6 -1046 65 -23 20 -53 60 -66 87 l-24 51 0 1555 0 1555 24 50 c12 28 41 66 63 86 80 73 33 70 1049 67 l909 -3 41 -22 c56 -30 103 -79 128 -133 19 -41 21 -69 26 -320 5 -264 6 -276 27 -306 66 -92 209 -84 267 16 20 33 21 51 21 315 0 243 -2 288 -18 339 -61 195 -192 336 -377 404 l-75 27 -945 2 c-573 0 -965 -3 -995 -9z"/>
<path d="M3773 3549 c-24 -11 -52 -36 -64 -55 -28 -47 -29 -121 -1 -166 12 -18 150 -161 307 -318 l285 -285 -1539 -5 c-1535 -5 -1540 -5 -1567 -26 -44 -32 -66 -68 -71 -116 -7 -58 15 -108 63 -144 l37 -29 1541 -3 1540 -2 -301 -303 c-323 -324 -334 -339 -319 -421 8 -41 46 -90 87 -111 33 -18 101 -20 132 -4 31 16 915 898 933 931 8 15 14 45 14 68 0 23 -6 53 -14 68 -23 42 -907 920 -939 932 -42 15 -77 12 -124 -11z"/>
</g>
</svg>