<svg xmlns="http://www.w3.org/2000/svg" version="1.0" preserveAspectRatio="xMidYMid meet" viewBox="0 28.01 100 71.49">

<g transform="translate(0.000000,100.000000) scale(0.100000,-0.100000)" fill="#000000" stroke="none">
<path d="M397 713 c-4 -3 -7 -25 -7 -48 l0 -43 38 14 c20 7 60 13 88 14 38 0 58 6 75 21 18 16 20 19 6 15 -10 -3 -45 3 -77 14 -60 20 -111 26 -123 13z"/>
<path d="M680 634 c0 -41 2 -45 20 -39 11 4 44 1 74 -6 38 -8 59 -9 72 -1 18 10 18 11 -1 18 -11 4 -42 23 -69 41 -26 18 -59 33 -72 33 -22 0 -24 -4 -24 -46z"/>
<path d="M137 653 c-4 -3 -7 -26 -7 -51 0 -38 2 -43 15 -32 8 6 41 14 74 17 41 4 66 12 77 24 16 18 16 19 -17 19 -19 1 -45 7 -59 15 -26 15 -72 20 -83 8z"/>
<path d="M264 574 c-109 -18 -192 -50 -232 -90 l-32 -32 2 -224 3 -223 205 0 205 0 3 183 2 182 80 0 80 0 2 -182 3 -183 205 0 205 0 3 223 2 224 -32 32 c-69 68 -242 107 -478 105 -80 -1 -182 -7 -226 -15z m56 -249 l0 -55 -40 0 -40 0 0 49 c0 52 5 57 58 60 20 1 22 -3 22 -54z m418 49 c19 -6 22 -13 22 -55 l0 -49 -40 0 -40 0 0 55 c0 59 5 63 58 49z m-558 -64 l0 -50 -40 0 c-40 0 -40 0 -40 39 0 34 4 41 28 49 48 18 52 15 52 -38z m689 39 c28 -10 31 -15 31 -53 l0 -42 -40 4 -40 4 0 49 c0 53 2 54 49 38z m-549 -214 l0 -55 -40 0 -40 0 0 55 0 55 40 0 40 0 0 -55z m440 0 l0 -55 -40 0 -40 0 0 55 0 55 40 0 40 0 0 -55z m-580 -5 l0 -50 -40 0 -40 0 0 43 c0 52 4 57 47 57 l33 0 0 -50z m718 -2 l3 -48 -40 0 -41 0 0 51 0 50 38 -3 c37 -3 37 -3 40 -50z"/>
</g>
</svg>